<?xml version="1.0" standalone="no"?><!DOCTYPE svg PUBLIC "-//W3C//DTD SVG 1.1//EN" "http://www.w3.org/Graphics/SVG/1.1/DTD/svg11.dtd"><svg t="1553222106080" class="icon" style="" viewBox="0 0 1024 1024" version="1.1" xmlns="http://www.w3.org/2000/svg" p-id="14734" xmlns:xlink="http://www.w3.org/1999/xlink" width="200" height="200"><defs><style type="text/css"></style></defs><path d="M387.456 972.81066667H64.67199999c-29.792 0-53.984-24.192-53.98399999-53.984s24.192-53.984 53.98399999-53.984h322.89600001c29.792 0 53.984 24.192 53.984 53.984s-24.192 53.984-54.096 53.984z" p-id="14735"></path><path d="M713.488 424.79466668c57.67999999 0 111.776 15.568 158.14400001 42.78399998v-104.38399999c0-198.016-160.49599999-358.512-358.51200001-358.512-197.904 0.112-358.4 160.608-358.4 358.512v400.73599999c0 16.016 12.992 29.00800001 29.008 29.00800001h221.088c-3.136-17.808-4.81600001-36.176-4.816-54.88 0.112-172.928 140.448-313.26400001 313.488-313.26399999zM532.832 147.93066667c55.552 2.464 109.64800001 32.03200001 152.208 83.104 36.96 44.352 60.816 99.792 63.84 148.176 0.672 10.752-7.504 20.048-18.36799999 20.72H729.28c-10.30399999 0-18.92800001-7.952-19.6-18.368-2.464-39.76-23.40799999-87.91999999-54.76799999-125.44-35.392-42.55999999-79.40800001-67.088-123.87200001-68.992-10.86400001-0.448-19.152-9.632-18.704-20.496 0.56-10.752 9.744-19.152 20.496-18.704z" p-id="14736"></path><path d="M470.56 747.91466667c0 143.584 116.368 260.064 260.064 260.064s260.064-116.368 260.064-260.064-116.48-260.064-260.064-260.064S470.56 604.33066667 470.56 747.91466667z m99.11999999 27.66400001c10.192-2.23999999 20.272 4.144 22.51200001 14.33599999 16.576 75.264 91.28 123.088 166.54400001 106.512 36.51199999-8.064 67.648-29.792 87.696-61.264 20.16-31.47199999 26.768-68.88 18.70399999-105.392-16.576-75.264-91.28-123.088-166.544-106.512-13.88800001 3.024-26.99200001 8.064-38.976 14.896l44.12799999 44.12799999c6.83200001 6.83200001 2.016 18.592-7.72799999 18.59200001H588.16c-6.048 0-10.86400001-4.928-10.86399999-10.864v-107.856c0-9.744 11.76-14.56 18.59199998-7.72800001l36.17600001 36.17600001c0.56-0.336 1.12-0.78400001 1.68000001-1.12 17.35999999-10.976 36.4-18.816 56.67199999-23.184 46.368-10.192 93.856-1.79200001 133.84000001 23.744s67.648 65.072 77.83999999 111.44 1.79200001 93.856-23.744 133.84-65.072 67.648-111.44 77.84c-12.768 2.80000001-25.76 4.25599999-38.528 4.256-33.48799999 0-66.416-9.52-95.312-28-39.984-25.536-67.648-65.072-77.84-111.44-2.23999999-10.08 4.25599999-20.16 14.44799999-22.39999999z" p-id="14737"></path></svg>