<?xml version="1.0" standalone="no"?><!DOCTYPE svg PUBLIC "-//W3C//DTD SVG 1.1//EN" "http://www.w3.org/Graphics/SVG/1.1/DTD/svg11.dtd"><svg t="1551857874429" class="icon" style="" viewBox="0 0 1024 1024" version="1.1" xmlns="http://www.w3.org/2000/svg" p-id="19682" xmlns:xlink="http://www.w3.org/1999/xlink" width="128" height="128"><defs><style type="text/css"></style></defs><path d="M512 1024a136.3456 136.3456 0 0 0 136.5248-136.6016H375.4752A136.5248 136.5248 0 0 0 512 1024z m364.1088-273.0496c-45.5168 0-45.5168-180.8128-45.5168-180.8128v-126.5664c0-159.3856-96.4096-293.9392-228.7872-337.6128A91.0848 91.0848 0 0 0 512 0a91.0848 91.0848 0 0 0-89.7792 106.0608c-125.696 43.8272-228.8128 178.3552-228.8128 337.536v125.312s0 180.4544-44.3392 182.0416c-26.4192 0-46.6688 20.352-46.6688 45.4912 0 25.2928 20.3776 45.4912 45.4912 45.4912h728.192c25.2416 0 45.4912-20.352 45.4912-45.4912a45.3632 45.3632 0 0 0-45.4656-45.4912z" fill="#ffffff" p-id="19683"></path></svg>