<?xml version="1.0" standalone="no"?><!DOCTYPE svg PUBLIC "-//W3C//DTD SVG 1.1//EN" "http://www.w3.org/Graphics/SVG/1.1/DTD/svg11.dtd"><svg t="1557479499552" class="icon" style="" viewBox="0 0 1024 1024" version="1.1" xmlns="http://www.w3.org/2000/svg" p-id="5119" xmlns:xlink="http://www.w3.org/1999/xlink" width="128" height="128"><defs><style type="text/css"></style></defs><path d="M931.65037 777.481481H92.539259A92.539259 92.539259 0 0 1 0 685.131852V149.428148A92.539259 92.539259 0 0 1 92.539259 56.888889h839.111111A92.539259 92.539259 0 0 1 1024 149.428148v535.703704A92.539259 92.539259 0 0 1 931.65037 777.481481zM92.539259 113.777778A35.65037 35.65037 0 0 0 56.888889 149.428148v535.703704A35.65037 35.65037 0 0 0 92.539259 720.592593h839.111111A35.65037 35.65037 0 0 0 967.111111 685.131852V149.428148A35.65037 35.65037 0 0 0 931.65037 113.777778zM815.407407 1005.037037H208.592593a28.444444 28.444444 0 0 1 0-56.888889h606.814814a28.444444 28.444444 0 0 1 0 56.888889z" fill="" p-id="5120"></path><path d="M208.592593 303.407407m-37.925926 0a37.925926 37.925926 0 1 0 75.851852 0 37.925926 37.925926 0 1 0-75.851852 0Z" fill="" p-id="5121"></path><path d="M360.296296 512m-37.925926 0a37.925926 37.925926 0 1 0 75.851852 0 37.925926 37.925926 0 1 0-75.851852 0Z" fill="" p-id="5122"></path><path d="M654.222222 331.851852m-37.925926 0a37.925926 37.925926 0 1 0 75.851852 0 37.925926 37.925926 0 1 0-75.851852 0Z" fill="" p-id="5123"></path><path d="M815.407407 549.925926m-37.925926 0a37.925926 37.925926 0 1 0 75.851852 0 37.925926 37.925926 0 1 0-75.851852 0Z" fill="" p-id="5124"></path><path d="M360.296296 530.962963a18.962963 18.962963 0 0 1-15.549629-8.154074l-132.740741-189.62963a18.962963 18.962963 0 1 1 31.099259-21.807407l132.740741 189.629629A18.962963 18.962963 0 0 1 360.296296 530.962963zM815.407407 568.888889a18.962963 18.962963 0 0 1-15.36-7.774815l-151.703703-208.592593a18.962963 18.962963 0 0 1 30.72-22.376296l151.703703 208.592593A18.962963 18.962963 0 0 1 815.407407 568.888889z" fill="" p-id="5125"></path><path d="M375.656296 519.964444a18.962963 18.962963 0 0 1-9.481481-35.46074L648.533333 322.37037a18.962963 18.962963 0 1 1 18.962963 32.805926l-282.358518 163.081482a18.962963 18.962963 0 0 1-9.481482 1.706666z" fill="" p-id="5126"></path></svg>