<?xml version="1.0" standalone="no"?><!DOCTYPE svg PUBLIC "-//W3C//DTD SVG 1.1//EN" "http://www.w3.org/Graphics/SVG/1.1/DTD/svg11.dtd"><svg t="1548929381041" class="icon" style="" viewBox="0 0 1024 1024" version="1.1" xmlns="http://www.w3.org/2000/svg" p-id="7080" xmlns:xlink="http://www.w3.org/1999/xlink" width="128" height="128"><defs><style type="text/css"></style></defs><path d="M502.81984 512.74752C502.81984 512.74752 470.511616 406.64064 282.51136 358.658048 167.328768 373.251072 80.784384 470.653952 80.784384 586.292224 80.784384 699.465728 165.817344 797.108224 278.651904 813.464576L279.387136 813.529088 743.258112 812.602368 770.893824 812.439552C870.749184 794.264576 943.228928 707.923968 943.228928 607.13984 943.235072 519.5776 887.721984 440.999936 804.929536 411.031552 768.789504 290.983936 659.730432 210.4576 533.041152 210.4576 443.05408 210.4576 359.733248 252.478464 306.56512 322.475008 399.62624 335.391744 490.942464 382.09536 502.81984 512.74752 502.81984 512.74752 502.822912 512.779264 502.81984 512.74752Z" p-id="7081"></path></svg>