<?xml version="1.0" standalone="no"?><!DOCTYPE svg PUBLIC "-//W3C//DTD SVG 1.1//EN" "http://www.w3.org/Graphics/SVG/1.1/DTD/svg11.dtd"><svg t="1557503402037" class="icon" style="" viewBox="0 0 1024 1024" version="1.1" xmlns="http://www.w3.org/2000/svg" p-id="2779" xmlns:xlink="http://www.w3.org/1999/xlink" width="128" height="128"><defs><style type="text/css"></style></defs><path d="M 454.863 595.997 h 89.03 l 26.638 -166.842 h -89.73 Z" fill="#889aa4" p-id="2780"></path><path d="M 511.996 63.225 c -247.202 0 -447.6 200.397 -447.6 447.6 s 200.398 447.597 447.6 447.597 s 447.599 -200.397 447.598 -447.598 s -200.396 -447.599 -447.598 -447.599 Z M 696.013 429.155 h -60.988 l -25.94 166.842 h 69.4 l -9.112 57.483 h -69.4 l -17.526 109.36 h -65.194 l 17.526 -109.359 h -89.029 l -17.526 109.359 h -65.195 l 17.526 -109.359 h -60.988 l 9.114 -57.483 h 60.988 l 26.64 -166.842 h -70.103 l 9.114 -57.483 h 70.101 l 17.526 -109.359 h 64.494 l -17.526 109.359 h 89.73 l 17.526 -109.359 h 64.494 l -17.526 109.359 h 60.989 l -9.112 57.483 Z" fill="#889aa4" p-id="2781"></path></svg>
