<?xml version="1.0" standalone="no"?><!DOCTYPE svg PUBLIC "-//W3C//DTD SVG 1.1//EN" "http://www.w3.org/Graphics/SVG/1.1/DTD/svg11.dtd"><svg t="1553506019763" class="icon" style="" viewBox="0 0 1024 1024" version="1.1" xmlns="http://www.w3.org/2000/svg" p-id="3636" xmlns:xlink="http://www.w3.org/1999/xlink" width="128" height="128"><defs><style type="text/css"></style></defs><path d="M32 704c-19.2 0-32 12.8-32 32v288h288c19.2 0 32-12.8 32-32s-12.8-32-32-32H64v-224c0-19.2-12.8-32-32-32zM0 0v288c0 19.2 12.8 32 32 32s32-12.8 32-32V64h224c19.2 0 32-12.8 32-32s-12.8-32-32-32H0zM992 320c19.2 0 32-12.8 32-32V0h-288c-19.2 0-32 12.8-32 32s12.8 32 32 32h224v224c0 19.2 12.8 32 32 32zM960 736v224h-224c-19.2 0-32 12.8-32 32s12.8 32 32 32h288v-288c0-19.2-12.8-32-32-32s-32 12.8-32 32z" fill="#fff" p-id="3637"></path><path d="M601.6 467.2l384-384-44.8-44.8-384 384c-12.8 12.8-12.8 32 0 44.8 12.8 12.8 32 12.8 44.8 0zM422.4 556.8l-384 384 44.8 44.8 384-384c12.8-12.8 12.8-32 0-44.8-12.8-12.8-32-12.8-44.8 0z" fill="#fff" p-id="3638"></path></svg>
