<?xml version="1.0" standalone="no"?><!DOCTYPE svg PUBLIC "-//W3C//DTD SVG 1.1//EN" "http://www.w3.org/Graphics/SVG/1.1/DTD/svg11.dtd"><svg t="1557300303670" class="icon" style="" viewBox="0 0 1024 1024" version="1.1" xmlns="http://www.w3.org/2000/svg" p-id="4595" xmlns:xlink="http://www.w3.org/1999/xlink" width="200" height="200"><defs><style type="text/css"></style></defs><path d="M997.464647 510.10586 551.262212 95.395674c-10.32209-9.592472-23.426549-14.387685-36.528961-14.387685-13.104459 0-26.209942 4.796236-36.532031 14.387685L31.998785 510.10586l78.786391 0 25.692149-23.87885 0 452.976722 17.321504 0 36.316114 0 164.264181 0 321.82366 0 159.235654 0 52.79953 0 0.838088 0L889.076054 482.589157l29.604248 27.51568L997.464647 510.104837zM408.015717 885.566114 408.015717 671.016667c0-59.153238 48.124044-107.274212 107.274212-107.274212s107.274212 48.120974 107.274212 107.274212l0 214.548424L408.015717 885.565091zM835.437413 885.566114 676.201759 885.566114 676.201759 671.016667c0-88.869027-72.04178-160.91183-160.91183-160.91183s-160.91183 72.04178-160.91183 160.91183l0 214.548424L190.113919 885.565091 190.113919 436.377672l324.632635-301.712623 0 0.019443 320.69086 298.055326L835.437413 885.566114z" p-id="4596"></path></svg>