<?xml version="1.0" standalone="no"?><!DOCTYPE svg PUBLIC "-//W3C//DTD SVG 1.1//EN" "http://www.w3.org/Graphics/SVG/1.1/DTD/svg11.dtd"><svg t="1557301070450" class="icon" style="" viewBox="0 0 1041 1024" version="1.1" xmlns="http://www.w3.org/2000/svg" p-id="658" xmlns:xlink="http://www.w3.org/1999/xlink" width="203.3203125" height="200"><defs><style type="text/css"></style></defs><path d="M977.94727 718.43279h-42.71375c-24.121859 53.864684-61.165642 101.215407-116.01332 137.489195l17.697896 42.016754c12.773925 32.577809-3.186981 69.383593-35.649791 82.206518l-112.318342 39.427769c-32.46281 12.822925-69.137595-3.195981-81.91152-35.77379l-23.474862-55.757674a873.79488 873.79488 0 0 1-43.302747 2.515986c-43.213747 1.433992-84.615504-1.294992-123.675275-7.726955l-25.800849 58.854655c-12.773925 32.577809-49.44971 48.588715-81.91152 35.77379l-101.789403-47.883719c-32.46381-12.822925-48.424716-49.629709-35.642792-82.198518l25.350852-57.829662C142.624164 786.185393 103.779392 730.959717 85.2605 667.746087c-16.624903-56.716668-2.842983-136.653199-0.187998-149.419124-20.918877-8.717949-50.136706-26.513845-69.408594-61.919637-19.836884-36.452786-23.326863-91.800462 4.211976-137.349195 14.239917-23.539862 63.942625-59.419652 87.03249-17.607897 13.69992 24.818855-7.718955 38.747773-13.330922 42.967748-5.620967 4.235975-21.934871 13.969918-18.951889 59.165653 1.71999 26.178847 15.44491 39.353769 29.652826 46.03973 54.806679-138.431189 201.767818-232.575637 414.817569-222.833694 27.120841 1.245993 52.644692 3.39998 76.86455 6.300963 18.083894-21.425874 39.549768-44.138741 63.533628-64.106624 49.579709-41.287758 141.65917-79.133536 162.635047-54.880679 17.361898 20.065882 14.838913 32.897807 1.334992 66.343612-8.45495 20.942877-17.295899 61.312641-20.835878 113.186336 72.447576 40.804761 115.521323 98.651422 135.612205 170.174003h39.706768c34.887796 0 63.17263 28.381834 63.17263 63.393629v127.836251c0 35.011795-28.284834 63.394629-63.17263 63.394628z m-7.365957-176.440966c0-5.833966-4.711972-10.569938-10.529938-10.569938h-76.732551c-11.134935-90.121472-58.780656-159.227067-158.62007-199.350832-2.097988-48.112718 19.524886-133.449218 19.524885-133.449218s-61.967637 24.039859-100.929408 109.613358c-36.649785-7.479956-78.019543-12.363928-124.550271-14.403916-208.798777-9.176946-342.820991 94.579446-367.753845 236.434615 1.457991-8.307951-16.280905 69.523593-0.122999 122.454282 19.557885 64.040625 65.851614 117.971309 130.679234 155.752088l-35.86279 91.465464c-2.129988 5.431968 0.523997 11.569932 5.939966 13.69992l71.276582 36.395786c5.415968 2.138987 11.528932-0.523997 13.65892-5.956965l38.714773-96.307435c48.727714 13.846919 103.067396 20.704879 161.414054 18.844889 34.765796-1.105994 66.286612-4.391974 95.087443-9.454944l31.602815 80.575527c2.121988 5.424968 8.233952 8.103953 13.64992 5.964966l77.593545-23.719862c5.415968-2.138987 8.070953-8.275952 5.948966-13.699919l-30.373822-77.889544c72.144577-31.503815 116.849315-79.993531 142.864162-137.496194 5.939965-13.125923 9.143946-27.31784 10.913936-42.189753h76.077555c5.816966 0 10.528938-4.734972 10.528938-10.568938v-96.143437z m-204.250803 47.539722c-33.142806 0-60.009648-26.957842-60.009649-60.215647s26.866843-60.223647 60.009649-60.223648 60.009648 26.965842 60.009648 60.223648c0 33.257805-26.866843 60.214647-60.009648 60.214647z m-279.017365-406.747617c0-65.541616-52.95569-118.677305-118.274307-118.677305-65.311617 0-118.267307 53.135689-118.267307 118.676305 0 18.337893 4.269975 35.625791 11.659931 51.1287l-58.600656 28.177835c-11.175935-23.777861-17.607897-50.235706-17.607897-78.257541C186.222909 82.304518 268.240428 0 369.415835 0 470.131245 0 551.796767 81.575522 552.534762 182.471931l-65.303617 1.941988c0-0.549997 0.082-1.081994 0.082-1.62999z" fill="" p-id="659"></path></svg>