<?xml version="1.0" standalone="no"?><!DOCTYPE svg PUBLIC "-//W3C//DTD SVG 1.1//EN" "http://www.w3.org/Graphics/SVG/1.1/DTD/svg11.dtd"><svg t="1553248508724" class="icon" style="" viewBox="0 0 1024 1024" version="1.1" xmlns="http://www.w3.org/2000/svg" p-id="1514" xmlns:xlink="http://www.w3.org/1999/xlink" width="128" height="128"><defs><style type="text/css"></style></defs><path d="M926.427429 679.643429V185.734095c0-28.086857-18.919619-50.858667-42.22781-50.858666H127.268571c-23.405714 0-42.276571 22.77181-42.276571 50.858666v493.909334H18.139429v87.771428c0 32.572952 21.942857 59.001905 48.90819 59.001905h877.226667c26.965333 0 48.90819-26.428952 48.90819-59.001905v-87.771428h-66.803809z m-56.32 0h-277.260191v74.118095H418.57219v-74.118095H141.312V202.703238h728.795429v476.940191z" p-id="1515"></path><path d="M835.876571 301.83619a55.100952 55.100952 0 0 0-39.643428-15.945142c-8.289524-0.097524-17.16419 4.973714-25.112381 9.020952-14.677333 7.41181-20.382476 21.308952-22.332952 36.571429-0.828952 6.534095 1.024 13.458286 0.292571 19.992381a20.821333 20.821333 0 0 1-5.168762 11.702857c-7.850667 8.045714-16.725333 15.164952-25.014857 22.918095-24.527238 22.77181-48.810667 45.641143-73.337905 68.36419-14.482286 13.55581-28.769524 27.111619-43.300571 40.472381-2.096762 1.706667-7.168 3.608381-8.094476 2.535619-8.484571-7.41181-18.529524-3.998476-27.794286-4.632381-7.265524-0.487619-12.921905 0.731429-18.627048-7.655619-10.873905-16.042667-25.014857-29.988571-37.351619-45.202285-2.974476-3.608381-6.485333-10.337524-5.168762-13.55581 7.655619-17.554286 4.778667-33.158095-5.363809-48.371809a47.786667 47.786667 0 0 0-21.796572-16.871619 48.274286 48.274286 0 0 0-46.665143 3.608381 47.932952 47.932952 0 0 0-22.869333 42.812952 17.16419 17.16419 0 0 1-5.461333 12.141714c-19.651048 15.993905-39.984762 31.305143-59.977143 46.908953-13.653333 10.581333-28.038095 20.284952-40.521143 31.890285-10.776381 9.801143-20.72381 14.628571-34.035809 6.095238-1.462857-0.975238-3.85219-1.024-5.705143-0.731428-9.069714 1.462857-18.724571 1.852952-27.062857 5.168762-15.847619 6.192762-25.161143 19.358476-28.379429 35.352381a46.08 46.08 0 0 0 9.118476 40.033523c16.432762 20.041143 39.302095 26.575238 63.488 15.506286 19.163429-8.777143 23.990857-26.282667 29.403429-43.934476 0.390095-1.462857 0.195048-3.754667-0.731429-4.778667-6.534095-7.655619-1.26781-12.288 4.242286-16.725333 13.848381-10.971429 28.233143-21.504 42.081524-32.475429 22.040381-17.505524 43.739429-35.157333 65.779809-52.662857 1.950476-1.560381 6.38781-2.681905 7.801905-1.657904a45.641143 45.641143 0 0 0 32.816762 9.020952c4.778667-0.195048 9.508571-0.975238 14.140952-0.438857a11.605333 11.605333 0 0 1 7.363048 3.657143c12.629333 15.506286 24.527238 31.597714 37.741714 46.616381 5.071238 5.851429 4.583619 11.361524 2.096762 16.627809-7.996952 16.969143-3.754667 32.085333 5.36381 46.665143 6.095238 9.801143 15.945143 14.043429 26.331428 18.724571 15.262476 6.631619 29.305905 2.779429 40.96-4.144762 18.041905-10.435048 26.185143-28.233143 23.893333-49.834666a15.311238 15.311238 0 0 1 3.900953-10.727619c9.752381-10.093714 20.23619-19.602286 30.378667-29.208381 20.675048-19.456 41.545143-39.009524 62.317714-58.319238 14.287238-13.214476 28.867048-26.282667 42.910476-39.692191 8.777143-8.387048 16.286476-19.651048 30.72-9.654857 1.170286 0.828952 3.31581 0.828952 4.87619 0.536381 8.094476-1.462857 16.432762-2.048 23.990858-4.778667 13.848381-4.632381 24.917333-14.628571 27.940571-28.233142 3.705905-17.846857 4.242286-37.400381-10.435048-52.71162zM257.26781 571.343238c-9.411048 0.097524-15.847619-6.339048-15.945143-16.091428-0.195048-9.752381 5.705143-15.798857 15.603809-15.798858 10.873905-0.097524 16.481524 4.87619 16.579048 14.726096 0 8.43581-7.996952 17.066667-16.237714 17.16419z m199.972571-148.333714c-7.655619-1.121524-16.530286-10.727619-14.774857-15.701334 1.852952-5.168762 2.048-11.995429 9.508571-14.287238 13.653333-4.242286 20.284952 2.29181 23.79581 14.823619-3.510857 7.753143-6.92419 16.920381-18.529524 15.164953z m111.274667 133.607619c-10.24-0.097524-14.140952-4.729905-13.945905-16.091429 0.195048-10.581333 5.558857-15.750095 15.408762-15.945143 7.94819-0.195048 16.432762 11.361524 16.335238 16.774096-0.195048 8.97219-7.655619 15.408762-17.798095 15.262476z m229.912381-203.580953c-9.020952 0-15.213714-6.826667-15.116191-16.774095 0.097524-10.337524 5.510095-15.408762 16.042667-15.311238a16.091429 16.091429 0 0 1 16.091428 15.847619c0 7.655619-9.167238 16.237714-17.066666 16.237714z" p-id="1516"></path></svg>