<?xml version="1.0" standalone="no"?><!DOCTYPE svg PUBLIC "-//W3C//DTD SVG 1.1//EN" "http://www.w3.org/Graphics/SVG/1.1/DTD/svg11.dtd"><svg t="1551502890561" class="icon" style="" viewBox="0 0 1024 1024" version="1.1" xmlns="http://www.w3.org/2000/svg" p-id="26091" xmlns:xlink="http://www.w3.org/1999/xlink" width="200" height="200"><defs><style type="text/css"></style></defs><path d="M887.898143 948.348285H259.836623V75.651715h628.06152C928.067239 75.651715 960.629408 108.211673 960.629408 148.376347V875.62439c0 40.164183-32.562168 72.723895-72.731265 72.723895z m-221.607944-520.810477l-70.076085-154.833025-70.080998 154.833025-154.174757 14.076622s51.715807 69.329393 116.226088 117.940533c-26.340552 88.121967-32.134785 163.572272-32.134785 163.572271s71.358235-38.042005 139.675663-85.493806c0.122811 0.022106 0.395452 0.159655 0.488789 0.159654a1.496578 1.496578 0 0 0 0.233341-0.078599l139.923742 85.412751s-5.835989-75.629609-32.228122-163.886668c64.556949-48.670089 116.321881-117.626136 116.321881-117.626136z m-177.904341 132.166985s-0.132636-0.105618-0.201411-0.14983c0.046668-0.14983 0.093337-0.299659 0.135092-0.449489 0.029475 0.189129 0.066318 0.599319 0.066319 0.599319z m215.582825-1.046352s0.117899 0.39054 0.174392 0.582125c-0.061406 0.044212-0.122811 0.09088-0.181761 0.142461a4.257128 4.257128 0 0 0 0.007369-0.724586zM63.616215 875.62439V148.376347C63.616215 108.211673 96.178875 75.651715 136.346988 75.651715h67.427538v872.69657H136.346988C96.178875 948.348285 63.616215 915.788573 63.616215 875.62439z" p-id="26092"></path></svg>