<svg 
 xmlns="http://www.w3.org/2000/svg"
 xmlns:xlink="http://www.w3.org/1999/xlink"
 width="46px" height="34px">
<defs>
<linearGradient id="PSgrad_0" x1="0%" x2="0%" y1="100%" y2="0%">
  <stop offset="0%" stop-color="rgb(19,147,207)" stop-opacity="1" />
  <stop offset="100%" stop-color="rgb(254,254,254)" stop-opacity="1" />
</linearGradient>

</defs>
<path fill-rule="evenodd"  fill="rgb(254, 254, 254)"
 d="M42.933,34.000 L42.933,23.431 L46.000,23.431 L46.000,34.000 L42.933,34.000 ZM41.688,13.770 C40.891,8.579 35.717,8.672 35.463,8.693 L20.307,8.693 L16.489,5.254 L15.281,8.344 L14.159,8.270 C14.122,8.260 10.874,8.072 8.850,9.935 C7.771,10.924 7.219,12.331 7.173,14.219 L7.133,15.724 L3.067,15.724 L3.067,19.676 C3.385,20.096 4.168,20.733 5.823,20.242 L6.845,19.939 L7.483,20.798 C9.169,23.069 10.227,24.012 13.923,24.188 L14.606,24.219 L15.036,24.751 C15.950,25.869 16.897,27.078 17.630,28.023 L19.624,25.022 L28.946,25.325 L28.848,28.413 L21.224,28.165 L17.802,33.311 L17.802,33.314 L16.502,31.605 C15.382,30.134 14.244,28.677 13.089,27.235 C9.316,26.935 7.492,25.730 5.636,23.443 C2.530,23.919 0.705,21.969 0.147,20.761 L-0.000,20.109 L-0.000,12.636 L4.238,12.636 C4.551,10.588 5.410,8.909 6.805,7.630 C8.905,5.714 11.675,5.278 13.214,5.189 L15.253,-0.000 L21.479,5.603 L35.417,5.603 C38.143,5.584 43.764,7.065 44.737,13.542 L44.755,15.205 L41.688,15.205 L41.688,13.770 ZM35.908,34.000 L32.838,34.000 L32.838,26.212 L35.908,26.212 L35.908,34.000 ZM40.949,34.000 L37.882,34.000 L37.882,19.506 L40.949,19.506 L40.949,34.000 Z"/>
<path fill="url(#PSgrad_0)"
 d="M42.933,34.000 L42.933,23.431 L46.000,23.431 L46.000,34.000 L42.933,34.000 ZM41.688,13.770 C40.891,8.579 35.717,8.672 35.463,8.693 L20.307,8.693 L16.489,5.254 L15.281,8.344 L14.159,8.270 C14.122,8.260 10.874,8.072 8.850,9.935 C7.771,10.924 7.219,12.331 7.173,14.219 L7.133,15.724 L3.067,15.724 L3.067,19.676 C3.385,20.096 4.168,20.733 5.823,20.242 L6.845,19.939 L7.483,20.798 C9.169,23.069 10.227,24.012 13.923,24.188 L14.606,24.219 L15.036,24.751 C15.950,25.869 16.897,27.078 17.630,28.023 L19.624,25.022 L28.946,25.325 L28.848,28.413 L21.224,28.165 L17.802,33.311 L17.802,33.314 L16.502,31.605 C15.382,30.134 14.244,28.677 13.089,27.235 C9.316,26.935 7.492,25.730 5.636,23.443 C2.530,23.919 0.705,21.969 0.147,20.761 L-0.000,20.109 L-0.000,12.636 L4.238,12.636 C4.551,10.588 5.410,8.909 6.805,7.630 C8.905,5.714 11.675,5.278 13.214,5.189 L15.253,-0.000 L21.479,5.603 L35.417,5.603 C38.143,5.584 43.764,7.065 44.737,13.542 L44.755,15.205 L41.688,15.205 L41.688,13.770 ZM35.908,34.000 L32.838,34.000 L32.838,26.212 L35.908,26.212 L35.908,34.000 ZM40.949,34.000 L37.882,34.000 L37.882,19.506 L40.949,19.506 L40.949,34.000 Z"/>
</svg>