<?xml version="1.0" standalone="no"?><!DOCTYPE svg PUBLIC "-//W3C//DTD SVG 1.1//EN" "http://www.w3.org/Graphics/SVG/1.1/DTD/svg11.dtd"><svg t="1553506024968" class="icon" style="" viewBox="0 0 1024 1024" version="1.1" xmlns="http://www.w3.org/2000/svg" p-id="3767" xmlns:xlink="http://www.w3.org/1999/xlink" width="128" height="128"><defs><style type="text/css"></style></defs><path d="M0 0v288c0 19.2 12.8 32 32 32s32-12.8 32-32V64h224c19.2 0 32-12.8 32-32s-12.8-32-32-32H0zM960 736v224h-224c-19.2 0-32 12.8-32 32s12.8 32 32 32h288v-288c0-19.2-12.8-32-32-32s-32 12.8-32 32zM579.2 156.8c-19.2 0-32 12.8-32 32v288h288c19.2 0 32-12.8 32-32s-12.8-32-32-32h-224v-224c0-19.2-12.8-32-32-32z" fill="#fff" p-id="3768"></path><path d="M969.6 9.6l-384 384 44.8 44.8 384-384c12.8-12.8 12.8-32 0-44.8-12.8-12.8-32-12.8-44.8 0z" fill="#fff" p-id="3769"></path><path d="M444.8 867.2c19.2 0 32-12.8 32-32v-288h-288c-19.2 0-32 12.8-32 32s12.8 32 32 32h224v224c0 19.2 12.8 32 32 32z" fill="#fff" p-id="3770"></path><path d="M54.4 1014.4l384-384-44.8-44.8-384 384c-12.8 12.8-12.8 32 0 44.8 12.8 12.8 32 12.8 44.8 0z" fill="#fff" p-id="3771"></path></svg>
