<?xml version="1.0" standalone="no"?><!DOCTYPE svg PUBLIC "-//W3C//DTD SVG 1.1//EN" "http://www.w3.org/Graphics/SVG/1.1/DTD/svg11.dtd"><svg t="1553220636399" class="icon" style="" viewBox="0 0 1024 1024" version="1.1" xmlns="http://www.w3.org/2000/svg" p-id="9572" xmlns:xlink="http://www.w3.org/1999/xlink" width="200" height="200"><defs><style type="text/css"></style></defs><path d="M967.183515 838.376727c-10.022788-65.877333-126.169212-79.623758-128.155151-124.803879-1.985939-45.149091 9.774545-280.60703 9.774545-280.60703 6.640485-184.785455-120.273455-285.913212-250.600727-332.117333 0.155152-0.496485 0-1.303273-0.155152-2.172121 0.03103-0.930909 0.155152-1.861818 0.155152-2.792728a94.642424 94.642424 0 0 0-189.222788-0.03103c0 0.961939 0.124121 1.861818 0.155151 2.792727-0.155152 0.868848-0.279273 1.675636-0.155151 2.172122-130.327273 46.235152-257.241212 147.331879-250.600727 332.148363 0 0 11.791515 235.426909 9.805575 280.60703-1.985939 45.149091-118.132364 58.895515-128.155151 124.772849-6.547394 25.413818 22.745212 50.889697 50.858667 50.889697h297.673697a120.025212 120.025212 0 0 0-1.179152 15.763394c0 64.232727 52.037818 116.363636 116.239515 116.456727a116.456727 116.456727 0 0 0 116.208485-116.456727c0-5.337212-0.496485-10.612364-1.179151-15.763394h297.704727c28.082424 0 57.344-25.475879 50.827636-50.858667z" p-id="9573"></path></svg>