<?xml version="1.0" standalone="no"?><!DOCTYPE svg PUBLIC "-//W3C//DTD SVG 1.1//EN" "http://www.w3.org/Graphics/SVG/1.1/DTD/svg11.dtd"><svg t="1551502808545" class="icon" style="" viewBox="0 0 1024 1024" version="1.1" xmlns="http://www.w3.org/2000/svg" p-id="25086" xmlns:xlink="http://www.w3.org/1999/xlink" width="200" height="200"><defs><style type="text/css"></style></defs><path d="M204.312 523.903h278.119v145.942h60.84V523.903h278.68V694.12h61.864V463.067H543.27V348.554h-60.84v114.513H143.472v231.052h60.84V523.903z m61.138 233.098H84.607c-11.174 0-20.213 9.055-20.213 20.213v161.711c0 11.153 9.044 20.213 20.213 20.213H265.45c11.152 0 20.212-9.06 20.212-20.213v-161.71c0.002-11.159-9.06-20.214-20.21-20.214z m336.97 0H421.578c-11.173 0-20.213 9.055-20.213 20.213v161.711c0 11.153 9.044 20.213 20.213 20.213H602.42c11.153 0 20.214-9.06 20.214-20.213v-161.71c0-11.159-9.06-20.214-20.214-20.214z m335.445 0H757.023c-11.174 0-20.213 9.055-20.213 20.213v161.711c0 11.153 9.043 20.213 20.213 20.213h180.842c11.152 0 20.213-9.06 20.213-20.213v-161.71c0-11.159-9.06-20.214-20.213-20.214zM279.017 317.673H744.64c13.398 0 24.28-10.87 24.28-24.28V86.89c0-13.422-10.882-24.292-24.28-24.292H279.017c-13.416 0-24.279 10.87-24.279 24.292v206.503c0 13.41 10.863 24.28 24.279 24.28z m0 0" p-id="25087"></path></svg>