<?xml version="1.0" standalone="no"?><!DOCTYPE svg PUBLIC "-//W3C//DTD SVG 1.1//EN" "http://www.w3.org/Graphics/SVG/1.1/DTD/svg11.dtd"><svg t="1555491834416" class="icon" style="" viewBox="0 0 1027 1024" version="1.1" xmlns="http://www.w3.org/2000/svg" p-id="14025" xmlns:xlink="http://www.w3.org/1999/xlink" width="128.375" height="128"><defs><style type="text/css"></style></defs><path d="M1006.933333 532.26666703c-23.893333 3.413333-37.546667-3.413333-51.2-6.826667 20.48-13.653333 34.133333-34.133333 34.133334-58.026667 0-37.546667-30.72-68.266667-68.266667-68.266666s-68.266667 30.72-68.266667 68.266666c0 17.066667 6.826667 34.133333 20.48 47.786667-13.653333 0-30.72 0-40.96-3.413333-44.373333-286.72-494.933333-204.8-494.933333-204.8C279.893333 190.93333303 27.306667 248.96000003 27.306667 248.96000003 136.533333 313.81333303 136.533333 426.45333303 136.533333 426.45333303 88.746667 481.06666703 81.92 532.26666703 81.92 532.26666703H0v160.426666h136.533333c54.613333 30.72 75.093333 95.573333 75.093334 95.573334V907.73333303h157.013333v-71.68h208.213333V907.73333303h177.493334v-163.84c37.546667-20.48 68.266667-95.573333 68.266666-95.573333 6.826667-37.546667 10.24-71.68 10.24-102.4 10.24 0 20.48 3.413333 30.72 3.413333 17.066667 0 37.546667-3.413333 54.613334-10.24 13.653333 10.24 37.546667 27.306667 78.506666 27.306667h13.653334c10.24 0 17.066667-10.24 17.066666-17.066667s-10.24-17.066667-20.48-17.066666z m-88.746666-102.4c20.48 0 34.133333 17.066667 34.133333 34.133333s-17.066667 34.133333-34.133333 34.133333-34.133333-17.066667-34.133334-34.133333 17.066667-34.133333 34.133334-34.133333z" fill="#ffffff" p-id="14026"></path><path d="M785.066667 324.05333303c10.24-23.893333 17.066667-47.786667 13.653333-75.093333-3.413333-92.16-81.92-167.253333-174.08-163.84-85.333333 3.413333-153.6 71.68-160.426667 157.013333 68.266667-3.413333 221.866667-6.826667 320.853334 81.92z" fill="#ffffff" p-id="14027"></path></svg>