<?xml version="1.0" standalone="no"?><!DOCTYPE svg PUBLIC "-//W3C//DTD SVG 1.1//EN" "http://www.w3.org/Graphics/SVG/1.1/DTD/svg11.dtd"><svg t="1551502730439" class="icon" style="" viewBox="0 0 1028 1024" version="1.1" xmlns="http://www.w3.org/2000/svg" p-id="24289" xmlns:xlink="http://www.w3.org/1999/xlink" width="200.78125" height="200"><defs><style type="text/css"></style></defs><path d="M395.001 722c0-54 12-105.001 36-150-222 15.001-396 198-396 420h500.999c-87.001-60-141.001-159.001-141.001-270zM454.999 512h15.001c48.001-57.001 114-96 186-111.001 24-36 36-81.001 36-126 0-132-108-240.001-240.001-240.001s-240.001 108-240.001 240.001c3.001 129.001 111.001 237.001 243.001 237.001zM956 724.999l-6-3.001-3.001-3.001s6-3.001 9.001-6c24-12 36-36 33.001-60-3.001-27.001-9.001-48.001-20.999-66-18-30-45.001-39.001-81.001-27.001-3.001 0-6 3.001-9.001 3.001v-6c9.001-24 3.001-51.001-15.001-72-6-6-18-18-36-24-15.001-6-30-9.001-42-9.001-39.001 0-54 33.001-60 45.001l-3.001-3.001s0-3.001-3.001-3.001c0-3.001-3.001-6-3.001-9.001-12-18-30-30-51.001-30h-9.001c-15.001 3.001-30 3.001-45.001 12-42 20.999-57.001 48.001-48.001 90v6c-3.001 0-6 0-9.001-3.001-27.001-9.001-51.001 0-69.001 20.999-9.001 12-18 27.001-21.002 48.001-12 42 0 72 39.001 90 0 0-3.001 3.001-6 3.001-24 9.001-36 30-39.001 57.001 0 33.001 9.001 63.001 33.001 84 15.001 15.001 33.001 20.999 57.001 18 3.001 0 6 0 9.001-3.001h3.001v3.001c-9.001 27.001-3.001 51.001 18 72 15.001 15.001 33.001 24 57.001 30 12 3.001 21.002 3.001 27.001 3.001 36 0 54-30 60-42 0-3.001 3.001-3.001 3.001-3.001l6 6c0 3.001 3.001 6 6 9.001 15.001 24 36 33.001 63.001 30 21.002-3.001 39.001-9.001 57.001-20.999 30-20.999 39.001-51.001 27.001-84h9.001c36 9.001 63.001-3.001 84-36 9.001-15.001 15.001-33.001 18-54 0-24-15.001-48.001-39.001-63.001zM887.001 728c3.001 18 12 36 30 45.001 3.001 0 3.001 3.001 6 3.001h3.001c6 3.001 6 3.001 6 9.001 0 12-3.001 18-9.001 27.001-6 9.001-9.001 9.001-12 9.001h-9.001c-3.001 0-6 0-9.001-3.001h-3.001c-27.001-3.001-48.001 6-60 24s-12 39.001-6 60c3.001 6 3.001 6-3.001 12-9.001 6-21.002 12-36 12l-3.001-3.001s0-3.001-3.001-6c0-3.001-3.001-3.001-3.001-3.001-15.001-27.001-39.001-33.001-54-33.001-12 0-36 3.001-54 33.001-6 9.001-9.001 12-9.001 12-3.001 0-6 0-12-3.001-12-3.001-24-9.001-33.001-18v-3.001c0-3.001 0-3.001 3.001-9.001 6-18 6-36-6-51.001-9.001-15.001-27.001-24-45.001-24h-9.001c-6 0-12 0-18 3.001h-9.001c-12-12-15.001-27.001-15.001-45.001 15.001-6 24-15.001 33.001-27.001 9.001-15.001 12-30 9.001-48.001-3.001-18-15.001-33.001-33.001-42-12-6-12-6-9.001-20.999 3.001-12 6-18 12-24l3.001-3.001h3.001c18 6 30 6 42 3.001 33.001-9.001 51.001-39.001 45.001-78-3.001-9.001 0-12 0-12s3.001-3.001 15.001-9.001c9.001-3.001 15.001-6 27.001-6l3.001 3.001c3.001 3.001 3.001 6 6 9.001 12 18 33.001 30 54 30s42-12 51.001-33.001c6-12 9.001-12 9.001-12 6 0 18 6 24 6 6 3.001 9.001 6 15.001 9.001 3.001 3.001 3.001 3.001 3.001 6-6 15.001-6 30-3.001 42 6 30 36 51.001 69.001 45.001 6 0 12-3.001 18-6 3.001 0 6 0 6-3.001 0 0 3.001 0 6 6 6 9.001 9.001 21.002 12 36l-6 15.001c-6 3.001-15.001 9.001-24 18-15.001 12-20.999 30-18 48.001zM724.999 602c-66 0-120 54-120 120s54 120 120 120 120-54 120-120-54-120-120-120zM724.999 782c-33.001 0-60-27.001-60-60s27.001-60 60-60 60 27.001 60 60-27.001 60-60 60z" p-id="24290"></path></svg>