<?xml version="1.0" standalone="no"?><!DOCTYPE svg PUBLIC "-//W3C//DTD SVG 1.1//EN" "http://www.w3.org/Graphics/SVG/1.1/DTD/svg11.dtd"><svg t="1553219121868" class="icon" style="" viewBox="0 0 1024 1024" version="1.1" xmlns="http://www.w3.org/2000/svg" p-id="3016" xmlns:xlink="http://www.w3.org/1999/xlink" width="200" height="200"><defs><style type="text/css"></style></defs><path d="M625.1 366.9C594.9 336.6 554.7 320 512 320s-82.9 16.6-113.1 46.9C368.6 397.1 352 437.3 352 480s16.6 82.9 46.9 113.1C429.1 623.4 469.3 640 512 640s82.9-16.6 113.1-46.9C655.4 562.9 672 522.7 672 480s-16.6-82.9-46.9-113.1zM512 576c-53 0-96-43-96-96s43-96 96-96 96 43 96 96-43 96-96 96z" fill="" p-id="3017"></path><path d="M928.1 480c0-229.8-186.3-416.1-416.1-416.1S95.9 250.2 95.9 480c0 168.4 100.1 313.4 244 378.9C269 880.5 203.8 915.2 147.1 960h729.8c-56.8-44.8-122-79.5-192.8-101.1 143.9-65.5 244-210.5 244-378.9zM512 704c-123.7 0-224-100.3-224-224s100.3-224 224-224 224 100.3 224 224-100.3 224-224 224z" fill="" p-id="3018"></path></svg>
